<?xml version="1.0" encoding="iso-8859-1"?>
<!-- Generator: Adobe Illustrator 17.1.0, SVG Export Plug-In . SVG Version: 6.00 Build 0)  -->
<!DOCTYPE svg PUBLIC "-//W3C//DTD SVG 1.1//EN" "http://www.w3.org/Graphics/SVG/1.1/DTD/svg11.dtd">
<svg version="1.1" id="Capa_1" xmlns="http://www.w3.org/2000/svg" xmlns:xlink="http://www.w3.org/1999/xlink" x="0px" y="0px"
	 viewBox="0 0 113.59 113.59" style="enable-background:new 0 0 113.59 113.59;" xml:space="preserve">
<g>
	<path d="M55.093,35.135c1.208,0,2.398-0.215,3.539-0.639c2.546-0.945,4.572-2.826,5.704-5.296c1.132-2.469,1.234-5.231,0.288-7.778
		c-1.473-3.966-5.304-6.63-9.534-6.63c-1.207,0-2.398,0.215-3.539,0.639c-5.256,1.953-7.944,7.818-5.992,13.074
		C47.032,32.47,50.864,35.135,55.093,35.135z"/>
	<path d="M85.667,0.339C84.911,0.114,84.127,0,83.338,0c-4.012,0-7.683,2.921-8.928,7.104c-1.364,4.585,0.558,9.305,4.335,11.246
		l-0.74,2.487c-1.284-0.055-2.624,0.663-3.183,1.815L68.52,35.636c-0.337,0.695-1.34,1.435-2.103,1.552l-6.106,0.942L47.84,39.057
		c-1.002,0.074-1.98,0.645-2.643,1.446c-0.105,0.087-0.219,0.163-0.315,0.26L25.417,60.57c-0.748,0.761-1.152,1.769-1.138,2.837
		s0.445,2.065,1.212,2.806l0.542,0.523c0.745,0.719,1.727,1.115,2.765,1.115c1.085,0,2.136-0.449,2.882-1.231l8.924-9.355
		l-3.254,12.962c-0.061,0.115-0.119,0.233-0.169,0.36L32.135,83.28c-0.426,1.071-1.743,2.377-2.817,2.795l-14.274,5.544
		c-1.717,0.667-3.062,2.631-3.062,4.474v1.717c0,1.674,1.138,2.89,2.705,2.89c0.354,0,0.717-0.063,1.078-0.188l20.361-6.983
		c1.623-0.556,3.392-2.24,4.028-3.833l4.742-11.876l1.591-0.194l-5.449,29.996c-0.492,2.71,1.31,5.326,4.019,5.832l0.283,0.052
		c0.302,0.057,0.609,0.085,0.915,0.085c2.408,0,4.477-1.716,4.92-4.082l6.906-36.854c0.016-0.083,0.01-0.163,0.021-0.245
		l5.307-27.333l8.273-1.161c1.452-0.204,2.969-1.379,3.529-2.735l6.601-15.985c0.31-0.751,0.298-1.564-0.034-2.289
		c-0.208-0.454-0.534-0.823-0.93-1.107l0.773-2.598c0.284,0.03,0.567,0.062,0.853,0.062c4.01,0,7.68-2.921,8.923-7.103
		C92.92,7.036,90.349,1.733,85.667,0.339z"/>
	<path d="M97.78,2.778c-2.11,0-3.828,1.717-3.828,3.827s1.717,3.827,3.828,3.827s3.827-1.717,3.827-3.827S99.891,2.778,97.78,2.778z
		"/>
</g>
<g>
</g>
<g>
</g>
<g>
</g>
<g>
</g>
<g>
</g>
<g>
</g>
<g>
</g>
<g>
</g>
<g>
</g>
<g>
</g>
<g>
</g>
<g>
</g>
<g>
</g>
<g>
</g>
<g>
</g>
</svg>
